<svg width="122" height="96" viewBox="0 0 122 96" fill="none" xmlns="http://www.w3.org/2000/svg">
<g clip-path="url(#clip0_2203_3322)">
<path fill-rule="evenodd" clip-rule="evenodd" d="M28.4676 50.2119C27.7237 45.8626 23.5654 42.9348 19.1797 43.6723L20.4745 36.3902L15.7881 35.5706C15.3853 36.4451 13.6212 40.4391 12.7646 44.9478C14.5113 46.1281 15.7912 47.9824 16.1725 50.2119C16.5796 52.5926 15.8777 54.9043 14.441 56.6314C14.8011 57.0659 15.2082 57.4599 15.6549 57.8064C17.4895 59.2302 19.7098 59.7868 21.8733 59.4228C26.2589 58.6851 29.2113 54.5612 28.4676 50.2119Z" fill="#001536"/>
<path fill-rule="evenodd" clip-rule="evenodd" d="M12.6748 45.4435C12.7035 45.2777 12.7337 45.1124 12.7651 44.9478C11.1047 43.8259 9.02242 43.3129 6.88504 43.6723L8.18013 36.3902L3.49316 35.5706C3.07588 36.477 1.19559 40.7348 0.379634 45.4435C-0.274434 49.2185 -0.244232 53.2831 1.77234 56.1438C2.21519 56.7733 2.75041 57.3337 3.36027 57.8064C5.1949 59.2302 7.41516 59.7868 9.57863 59.4228C11.5638 59.0888 13.2537 58.0599 14.4415 56.6314C14.3105 56.4738 14.1857 56.3111 14.0675 56.1438C12.0509 53.2829 12.0207 49.2185 12.6748 45.4435Z" fill="#007BFF"/>
<path fill-rule="evenodd" clip-rule="evenodd" d="M16.1738 50.2119C15.7925 47.9824 14.5124 46.1281 12.7657 44.9478C12.7343 45.1124 12.7043 45.2777 12.6756 45.4435C12.0213 49.2185 12.052 53.2831 14.0681 56.1438C14.1864 56.3111 14.3114 56.4738 14.4426 56.6314C15.8788 54.9043 16.5809 52.5926 16.1738 50.2119Z" fill="white"/>
<path fill-rule="evenodd" clip-rule="evenodd" d="M121.104 48.0255C120.858 47.9812 120.567 47.9592 120.276 47.9592C119.025 47.9592 118.042 48.5134 117.326 49.2672V48.4024C117.326 48.2474 117.259 48.1808 117.103 48.1808H115.359C115.202 48.1808 115.135 48.2474 115.135 48.4024V59.0879C115.135 59.2431 115.202 59.3097 115.359 59.3097H117.103C117.259 59.3097 117.326 59.2431 117.326 59.0879V53.3019C117.326 50.7968 119.36 49.8434 121.059 50.198C121.216 50.2203 121.305 50.1537 121.305 49.9987V48.2694C121.305 48.1365 121.238 48.0478 121.104 48.0255ZM108.196 57.4473C106.855 57.4473 106.162 56.8267 106.162 55.829C106.162 54.6983 107.212 54.1661 108.509 54.1661C109.671 54.1661 110.342 54.3214 111.37 54.6319C111.37 56.4496 109.917 57.4473 108.196 57.4473ZM108.978 47.9592C106.564 47.9592 105.066 49.2003 104.463 50.7968C104.396 50.9741 104.508 51.0407 104.642 51.0628L106.452 51.351C106.586 51.3731 106.654 51.3287 106.72 51.1957C106.9 50.8411 107.458 49.9543 108.978 49.9543C110.543 49.9543 111.37 50.8632 111.37 52.2378V52.6367C110.386 52.3485 109.604 52.1712 108.397 52.1712C105.893 52.1712 103.837 53.4569 103.837 55.9176C103.837 58.2675 105.782 59.5311 107.883 59.5311C109.604 59.5311 110.588 59.0213 111.37 58.2675V59.0876C111.37 59.2429 111.437 59.3095 111.594 59.3095H113.338C113.494 59.3095 113.561 59.2429 113.561 59.0876V52.0825C113.561 49.5108 111.772 47.9592 108.978 47.9592ZM95.9338 45.7867C98.1248 45.7867 99.5552 46.8064 100.204 49.0453C100.248 49.2006 100.337 49.2672 100.472 49.2672H102.282C102.461 49.2672 102.528 49.2228 102.528 49.0453C102.104 45.6537 99.4436 43.5698 95.9338 43.5698C92.4021 43.5698 89.0491 46.0526 89.0491 51.5504C89.0491 57.0483 92.4021 59.5311 95.9338 59.5311C99.4436 59.5311 102.104 57.4473 102.528 54.0554C102.528 53.8781 102.461 53.8338 102.282 53.8338H100.472C100.337 53.8338 100.248 53.9002 100.204 54.0554C99.5552 56.2945 98.1248 57.3141 95.9338 57.3141C93.6314 57.3141 91.4631 55.4964 91.4631 51.5504C91.4631 47.6045 93.6314 45.7867 95.9338 45.7867ZM82.2796 57.4473C80.9383 57.4473 80.2454 56.8267 80.2454 55.829C80.2454 54.6983 81.2959 54.1661 82.5922 54.1661C83.7549 54.1661 84.4257 54.3214 85.454 54.6319C85.454 56.4496 84.0009 57.4473 82.2796 57.4473ZM83.0619 47.9592C80.6479 47.9592 79.1499 49.2003 78.5463 50.7968C78.4796 50.9741 78.5912 51.0407 78.7251 51.0628L80.5358 51.351C80.6701 51.3731 80.7373 51.3287 80.804 51.1957C80.9833 50.8411 81.5419 49.9543 83.0619 49.9543C84.6267 49.9543 85.454 50.8632 85.454 52.2378V52.6367C84.4701 52.3485 83.6877 52.1712 82.4806 52.1712C79.9772 52.1712 77.9205 53.4569 77.9205 55.9176C77.9205 58.2675 79.8655 59.5311 81.9664 59.5311C83.6877 59.5311 84.6716 59.0213 85.454 58.2675V59.0876C85.454 59.2429 85.5212 59.3095 85.6773 59.3095H87.421C87.5776 59.3095 87.6443 59.2429 87.6443 59.0876V52.0825C87.6443 49.5108 85.8561 47.9592 83.0619 47.9592ZM76.1076 43.7915L74.3641 44.0797C74.2297 44.1017 74.1626 44.1904 74.1626 44.3234V59.0879C74.1626 59.2429 74.2297 59.3095 74.3863 59.3095H76.1298C76.2864 59.3095 76.3536 59.2429 76.3536 59.0876V43.9911C76.3536 43.8358 76.2419 43.7692 76.1076 43.7915ZM67.6286 57.0924H63.8821V52.2596H67.6286C69.1931 52.2596 70.2664 53.2353 70.2664 54.6542C70.2664 56.3389 69.1931 57.0924 67.6286 57.0924ZM63.8821 46.0083H66.5331C67.6509 46.0083 68.6567 46.6511 68.6567 48.0258C68.6567 49.4001 67.6509 50.043 66.5331 50.043H63.8821V46.0083ZM69.7967 50.5529C69.7967 50.5529 70.9816 49.7768 70.9816 47.7596C70.9816 45.1658 68.7684 43.7915 66.3766 43.7915H61.7807C61.6241 43.7915 61.5574 43.8581 61.5574 44.0131V59.0876C61.5574 59.2429 61.6241 59.3095 61.7807 59.3095H67.8966C70.7806 59.3095 72.5911 57.403 72.5911 54.7872C72.5911 52.2821 70.9816 51.0182 69.7967 50.5529ZM54.6343 57.4473C53.2935 57.4473 52.6001 56.8267 52.6001 55.829C52.6001 54.6983 53.6511 54.1661 54.9474 54.1661C56.1096 54.1661 56.7803 54.3214 57.8087 54.6319C57.8087 56.4496 56.3556 57.4473 54.6343 57.4473ZM55.4166 47.9592C53.0026 47.9592 51.505 49.2003 50.9015 50.7968C50.8343 50.9741 50.9459 51.0407 51.0798 51.0628L52.891 51.351C53.0248 51.3731 53.092 51.3287 53.1592 51.1957C53.338 50.8411 53.8968 49.9543 55.4166 49.9543C56.9814 49.9543 57.8087 50.8632 57.8087 52.2378V52.6367C56.8253 52.3485 56.0429 52.1712 54.8353 52.1712C52.3319 52.1712 50.2752 53.4569 50.2752 55.9176C50.2752 58.2675 52.2202 59.5311 54.3211 59.5311C56.0429 59.5311 57.0263 59.0213 57.8087 58.2675V59.0876C57.8087 59.2429 57.8759 59.3095 58.0324 59.3095H59.7757C59.9323 59.3095 59.9995 59.2429 59.9995 59.0876V52.0825C59.9995 49.5108 58.2112 47.9592 55.4166 47.9592ZM48.4623 43.7915L46.7188 44.0797C46.5847 44.1017 46.5175 44.1904 46.5175 44.3234V59.0879C46.5175 59.2429 46.5847 59.3095 46.7412 59.3095H48.485C48.6416 59.3095 48.7083 59.2429 48.7083 59.0876V43.9911C48.7083 43.8358 48.5966 43.7692 48.4623 43.7915ZM39.9833 57.0924H36.237V52.2596H39.9833C41.5481 52.2596 42.6211 53.2353 42.6211 54.6542C42.6211 56.3389 41.5481 57.0924 39.9833 57.0924ZM36.237 46.0083H38.8881C40.0058 46.0083 41.0114 46.6511 41.0114 48.0258C41.0114 49.4001 40.0058 50.043 38.8881 50.043H36.237V46.0083ZM42.1516 50.5529C42.1516 50.5529 43.3363 49.7768 43.3363 47.7596C43.3363 45.1658 41.1233 43.7915 38.7315 43.7915H34.1356C33.9793 43.7915 33.9121 43.8581 33.9121 44.0131V59.0876C33.9121 59.2429 33.9793 59.3095 34.1356 59.3095H40.2515C43.1353 59.3095 44.946 57.403 44.946 54.7872C44.946 52.2821 43.3363 51.0182 42.1516 50.5529Z" fill="#001536"/>
</g>
<defs>
<clipPath id="clip0_2203_3322">
<rect width="121.305" height="95.1016" fill="white"/>
</clipPath>
</defs>
</svg>
