<svg width="144" height="80" viewBox="0 0 144 80" fill="none" xmlns="http://www.w3.org/2000/svg">
<path d="M83.3125 67.2002C84.2208 67.2002 85.0505 67.3573 85.8008 67.6719C86.5511 67.9866 87.1938 68.4288 87.7285 68.9971C88.2633 69.5654 88.6774 70.24 88.9707 71.0254C89.264 71.8094 89.4111 72.6695 89.4111 73.6094C89.4111 74.5476 89.2639 75.409 88.9707 76.1914C88.6775 76.9767 88.2632 77.6515 87.7285 78.2168C87.1938 78.782 86.551 79.2209 85.8008 79.5312C85.0505 79.8444 84.2208 80 83.3125 80C82.4043 80 81.5764 79.8444 80.8291 79.5312C80.0816 79.2209 79.44 78.7822 78.9053 78.2168C78.3706 77.6515 77.9563 76.9768 77.6631 76.1914C77.3699 75.409 77.2237 74.5476 77.2236 73.6094C77.2236 72.6695 77.3699 71.8093 77.6631 71.0254C77.9563 70.24 78.3706 69.5653 78.9053 68.9971C79.44 68.4288 80.0816 67.9866 80.8291 67.6719C81.5764 67.3573 82.4043 67.2002 83.3125 67.2002ZM30.6562 68.7197H24.7217V72.8828H29.5264V74.2119H24.7217V78.4863H30.6562V79.8691H23.04V67.3398H30.6562V68.7197ZM41.998 67.3398C42.9066 67.3398 43.7349 67.4899 44.4824 67.79C45.2297 68.0901 45.8706 68.5158 46.4053 69.0664C46.94 69.6171 47.3542 70.2776 47.6475 71.0469C47.9407 71.8163 48.0879 72.6695 48.0879 73.6094C48.0878 74.5476 47.9407 75.4002 47.6475 76.1709C47.3542 76.9402 46.94 77.5986 46.4053 78.1465C45.8706 78.6943 45.2298 79.1188 44.4824 79.4189C43.7349 79.7191 42.9066 79.8691 41.998 79.8691H37.375V67.3398H41.998ZM56.6611 79.8691H54.9873V67.3398H56.6611V79.8691ZM72.7041 68.7656H68.71V79.8691H67.0371V68.7656H63.0264V67.3398H72.7041V68.7656ZM99.6748 67.3398C100.457 67.3398 101.133 67.4198 101.702 67.5801C102.271 67.7389 102.741 67.9723 103.112 68.2754C103.483 68.5784 103.757 68.9443 103.936 69.3711C104.114 69.7995 104.203 70.2811 104.203 70.8115C104.203 71.2528 104.134 71.6678 103.996 72.0508C103.858 72.4369 103.658 72.7809 103.396 73.0869C103.135 73.3929 102.816 73.6559 102.439 73.8701C102.063 74.0872 101.635 74.2501 101.158 74.3594C101.365 74.4818 101.549 74.6599 101.71 74.8945L105.315 79.8691H103.832C103.527 79.8691 103.303 79.7492 103.159 79.5088L99.9512 75.0322C99.8535 74.894 99.7467 74.7927 99.6318 74.7314C99.5168 74.6702 99.3442 74.6406 99.1143 74.6406H97.8467V79.8691H96.1816V67.3398H99.6748ZM121.6 79.8691H120.307C120.157 79.8691 120.036 79.8314 119.944 79.7559C119.852 79.6816 119.783 79.5834 119.737 79.4668L118.581 76.4434H113.035L111.88 79.4668C111.84 79.5717 111.771 79.6669 111.673 79.7471C111.575 79.8286 111.454 79.8691 111.311 79.8691H110.017L114.959 67.3418H116.658L121.6 79.8691ZM83.3125 68.6689C82.6514 68.669 82.0502 68.781 81.5098 69.0098C80.9694 69.2371 80.5083 69.5628 80.126 69.9854C79.7437 70.4079 79.4492 70.9252 79.2422 71.5371C79.0352 72.1491 78.9316 72.84 78.9316 73.6094C78.9317 74.3786 79.0352 75.0678 79.2422 75.6768C79.4492 76.2858 79.7436 76.8016 80.126 77.2227C80.5083 77.6466 80.9694 77.9704 81.5098 78.1934C82.0502 78.4192 82.6514 78.5312 83.3125 78.5312C83.9795 78.5312 84.5835 78.4192 85.124 78.1934C85.6645 77.9704 86.1244 77.6467 86.5039 77.2227C86.8834 76.8015 87.1768 76.2858 87.3838 75.6768C87.5908 75.0678 87.6943 74.3786 87.6943 73.6094C87.6943 72.8401 87.5907 72.1491 87.3838 71.5371C87.1768 70.9251 86.8834 70.4079 86.5039 69.9854C86.1244 69.5628 85.6645 69.2371 85.124 69.0098C84.5836 68.781 83.9794 68.6689 83.3125 68.6689ZM39.0566 78.4961H41.998C42.6593 78.4961 43.2603 78.3855 43.8008 78.1641C44.3412 77.9426 44.8012 77.6237 45.1807 77.207C45.5602 76.7903 45.8535 76.2781 46.0605 75.6719C46.2674 75.0659 46.3711 74.3784 46.3711 73.6094C46.3711 72.8401 46.2675 72.152 46.0605 71.5459C45.8535 70.9397 45.5602 70.4251 45.1807 70.0068C44.8012 69.5872 44.3413 69.2664 43.8008 69.0449C43.2603 68.8235 42.6593 68.7129 41.998 68.7129H39.0566V78.4961ZM115.618 69.6016C115.558 69.8012 115.499 69.9779 115.441 70.1309L113.501 75.2178H118.115L116.175 70.1201C116.048 69.8055 115.924 69.4138 115.804 68.9404C115.74 69.1793 115.679 69.4006 115.618 69.6016ZM97.8467 73.4082H99.5977C100.086 73.4082 100.516 73.348 100.887 73.2285C101.258 73.109 101.568 72.9397 101.818 72.7197C102.068 72.5027 102.256 72.2405 102.383 71.9375C102.509 71.6344 102.573 71.3008 102.573 70.9336C102.573 70.1875 102.33 69.6235 101.844 69.2461C101.358 68.8673 100.635 68.6777 99.6748 68.6777H97.8467V73.4082Z" fill="white"/>
<path d="M86.2578 16.2031L74.6123 15.7227V51.8398H58.3643V15.7227L49.8047 16.0752C51.0528 19.1129 51.7441 22.4393 51.7441 25.9277C51.7441 40.2394 40.1596 51.8398 25.8701 51.8398C11.5822 51.8397 0 40.2393 0 25.9277C9.54413e-05 11.6176 11.5823 0.0157793 25.8701 0.015625C34.4247 0.015625 42.0085 4.17499 46.7188 10.583V0H86.2578V16.2031ZM112.527 27.2266L119.437 0H136.801L143.36 51.8398H127.386L125.082 25.3701L117.507 51.8398H107.549L100.473 25.3701L98.0459 51.8398H82.0723L88.5039 0H106.055L112.527 27.2266ZM12.9082 9.59961L2.55957 35.0957C2.55957 35.0957 11.5367 35.26 12.3164 35.3418C13.0949 35.4236 24.9316 35.9174 20.6846 44.7656C21.97 43.7923 33.1378 43.1912 41.9883 44.7861C42.3118 44.8447 51.2002 24.8311 51.2002 24.8311C51.2002 24.8311 31.4363 22.1831 28.333 29.0947C28.333 29.0947 30.0962 24.8179 30.7646 22.8428C30.7861 22.7918 36.3408 9.59961 21.1641 9.59961H12.9082Z" fill="white"/>
</svg>
