<svg width="143" height="72" viewBox="0 0 143 72" fill="none" xmlns="http://www.w3.org/2000/svg">
<path d="M118.694 7.7708H120.262L122.862 14.7051H121.275L120.749 13.1608H118.148L117.602 14.7051H116.054L118.694 7.7708ZM118.547 12.0246H120.349L119.472 9.48022H119.453L118.547 12.0246Z" fill="white"/>
<path d="M123.221 7.77082H124.74L127.643 12.4228H127.662V7.77082H129.094V14.7051H127.565L124.673 10.0629H124.653V14.7051H123.221V7.77082H123.221Z" fill="white"/>
<path d="M133.309 7.60562C135.462 7.60562 136.728 9.2082 136.728 11.2673C136.728 13.2681 135.462 14.8703 133.309 14.8703C131.157 14.8703 129.891 13.2681 129.891 11.2673C129.891 9.2082 131.157 7.60562 133.309 7.60562ZM133.309 13.5882C134.683 13.5882 135.199 12.4228 135.199 11.2673C135.199 10.0531 134.683 8.88768 133.309 8.88768C131.936 8.88768 131.42 10.0531 131.42 11.2673C131.42 12.4228 131.936 13.5882 133.309 13.5882Z" fill="white"/>
<path d="M138.567 12.4035C138.567 13.326 139.287 13.6856 140.106 13.6856C140.641 13.6856 141.459 13.5302 141.459 12.821C141.459 12.0731 140.418 11.947 139.394 11.675C138.362 11.4029 137.32 11.0048 137.32 9.70337C137.32 8.28568 138.664 7.60562 139.921 7.60562C141.372 7.60562 142.706 8.23718 142.706 9.83938H141.226C141.177 9.00399 140.583 8.79032 139.853 8.79032C139.366 8.79032 138.801 8.99414 138.801 9.57682C138.801 10.111 139.132 10.1788 140.875 10.6259C141.382 10.7521 142.94 11.0726 142.94 12.646C142.94 13.9182 141.937 14.8699 140.048 14.8699C138.508 14.8699 137.067 14.1125 137.087 12.4031H138.567V12.4035Z" fill="white"/>
<path d="M94.5776 0.23928C99.5742 -0.476353 104.168 0.597068 108.041 4.00716C111.474 7.02856 113.228 10.8137 112.996 15.4077C112.854 18.2507 111.778 20.7504 109.968 22.8429C108.58 22.3655 107.272 21.9156 105.901 21.4454C107.441 20.1414 108.546 18.5725 108.934 16.6161C109.65 13.0117 108.616 9.91921 105.997 7.35363C103.078 4.4963 99.5282 3.58698 95.5426 3.96202C92.0274 4.29466 89.1357 5.78644 86.8636 8.46801C85.7508 9.78111 85.043 11.3042 84.5806 13.0632C86.263 13.0632 87.8817 13.0804 89.4995 13.0388C89.6921 13.0342 89.9185 12.7307 90.0568 12.5186C92.0139 9.52935 95.5632 8.15363 99.0078 9.06516C103.297 10.2014 105.136 15.1266 102.703 18.9629C101.226 21.2909 98.9868 22.374 96.3656 22.8355C96.0708 22.8874 95.777 22.9462 95.4647 23.0053V23.5029C97.0806 23.2616 98.6718 22.8922 100.279 22.8081C105.373 22.5427 110.908 24.9359 113.642 29.6387C114.519 25.631 115.396 21.6251 116.274 17.6154H123.146C122.873 18.885 122.609 20.1141 122.329 21.4136H119.387C117.992 27.7822 116.605 34.1128 115.213 40.4691C115.172 40.6785 115.127 40.8866 115.077 41.0933C114.814 42.2953 114.55 43.4983 114.286 44.7028C115.755 45.0385 117.198 45.381 118.648 45.6795C118.814 45.7136 119.059 45.5274 119.222 45.3895C120.864 44.0078 122.695 43.0339 124.878 42.9346C127.929 42.796 130.353 44.049 132.157 46.4661C134.613 49.7591 134.637 54.9032 132.261 58.2478C128.575 63.4362 120.934 63.4453 117.172 58.243C116.806 57.7372 116.442 57.5355 115.816 57.5533C114.164 57.5995 112.508 57.5692 110.783 57.5692C111.473 59.4794 112.47 61.1317 113.856 62.5406C117.146 65.8803 121.192 67.0653 125.802 66.8061C132.416 66.4326 137.143 61.3093 138.353 57.0331C139.97 51.3169 139.368 45.9822 134.873 41.6701C131.517 38.4517 127.445 37.5215 122.92 38.6569C122.021 38.8831 121.134 39.155 120.128 39.4376C120.345 38.4416 120.544 37.5074 120.753 36.5754C122.134 30.4315 123.522 24.2907 124.886 18.1434C124.982 17.7151 125.14 17.5755 125.572 17.5758C130.958 17.5864 136.342 17.5837 141.728 17.5791C142.084 17.5788 142.358 17.5761 142.356 18.072C142.339 21.9299 142.342 25.7889 142.336 29.6468C142.336 29.6885 142.307 29.7319 142.272 29.8274H128.207C128.469 28.6241 128.705 27.4507 129.001 26.2929C129.034 26.1641 129.407 26.0521 129.623 26.051C132.281 26.0347 134.939 26.0402 137.596 26.0402H138.417V21.4813C138.229 21.4688 138.027 21.4458 137.826 21.4458C135.553 21.4441 133.28 21.45 131.007 21.444L128.734 21.4332C128.251 21.4298 128.067 21.5499 127.959 22.0481C127.086 26.0746 126.174 30.092 125.274 34.1132C125.26 34.1765 125.26 34.2421 125.257 34.269C126.607 34.4065 127.956 34.4535 129.27 34.6922C135.876 35.8936 141.175 41.0467 142.505 47.6452C143.588 53.0201 142.991 58.1633 139.749 62.7486C136.542 67.2862 132.203 70.0607 126.578 70.574C120.03 71.1719 114.443 69.2242 110.137 64.1301C108.054 61.6659 106.895 58.7593 106.22 55.6461L106.013 54.6649C105.965 54.4385 105.916 54.2121 105.871 53.9852C105.858 53.922 105.886 53.8508 105.908 53.6937H107.208C110.914 53.6959 114.621 53.7113 118.327 53.687C118.852 53.684 119.115 53.8516 119.32 54.3171C120.076 56.0348 121.176 57.4219 123.059 58.0228C126.42 59.0944 129.818 56.8066 130.09 53.3C130.23 51.4811 130.013 49.7731 128.733 48.3493C127.199 46.6391 124.932 46.2303 122.988 47.4495C122.075 48.0227 121.327 48.8545 120.482 49.541C120.274 49.7096 119.946 49.9017 119.724 49.8544C116.94 49.2538 114.163 48.6238 111.387 47.9967C110.839 48.6149 110.238 49.2148 109.582 49.7948C106.478 52.5427 102.784 53.8963 98.672 54.2494C95.1986 54.5468 91.8189 54.2061 88.6335 52.7687C83.2254 50.3304 80.0767 46.0547 78.8989 40.3237C78.5323 38.5397 78.4317 36.701 78.1973 34.7984C78.5676 34.7802 78.7899 34.7603 79.0106 34.7603C82.8112 34.7561 86.6113 34.7664 90.4119 34.7444L90.505 34.7455C90.9512 34.7604 91.1058 34.9149 91.2145 35.4089C91.5188 36.7807 91.7737 38.2019 92.3554 39.4624C93.3087 41.5279 95.4793 42.4068 98.105 42.0715C100.139 41.8108 101.928 40.2831 102.43 38.3184C102.904 36.4613 102.473 34.8287 101.089 33.4709C99.6015 32.0135 97.7318 31.4552 95.7315 31.2037C95.57 31.1836 95.4073 31.1727 95.2454 31.1541C95.2302 31.1518 95.216 31.125 95.0618 30.9617C95.2092 30.8799 95.3666 30.8011 95.5155 30.7075C96.6573 29.9957 97.8009 29.2848 98.9373 28.5639C99.5133 28.1979 100.049 28.2774 100.639 28.5668C103.402 29.9224 105.454 31.8873 106.23 34.9575C107.52 40.0622 103.739 45.3455 98.4898 45.876C95.2937 46.1995 92.4808 45.4955 90.2178 43.1196C89.0952 41.9401 88.4376 40.5043 87.9697 38.9507L87.8788 38.6384H82.4175C82.7108 39.7329 82.8963 40.8066 83.2838 41.8018C85.2052 46.7352 88.8125 49.619 94.083 50.3154C97.7327 50.7969 101.31 50.4813 104.578 48.6268C108.481 46.4108 111.033 43.1651 111.553 38.6192C112.289 32.1719 108.846 27.7457 102.538 26.7591C98.2965 26.095 94.7651 27.5991 91.9098 30.7523C91.8635 30.803 91.8167 30.853 91.7666 30.9003C91.7525 30.9132 91.7256 30.9132 91.6538 30.9325V19.5556C93.2017 19.3465 94.7481 19.1883 96.274 18.9151C97.5927 18.6784 98.7396 18.0855 99.4623 16.874C100.674 14.8456 99.4814 12.7024 97.1147 12.6577C94.9992 12.6168 93.4859 13.6998 92.8237 15.7289C92.4521 16.8658 92.452 16.8666 91.2204 16.8666H79.9946C80.3061 15.1523 80.4559 13.4823 80.9244 11.9062C82.9457 5.11139 87.6006 1.23985 94.5776 0.23928Z" fill="white"/>
<path fill-rule="evenodd" clip-rule="evenodd" d="M74.2434 4.28665V3.3592C74.2434 1.89415 73.0762 0.705292 71.6355 0.705292H2.64624C1.20625 0.705292 0.0390625 1.89453 0.0390625 3.3592V14.905C0.0390625 14.9618 0.0519803 15.0152 0.0553998 15.0709V18.8735H74.2468V4.28665H74.2434Z" fill="#F58220"/>
<path d="M54.0523 4.448L64.6792 15.6277V4.61301H65.484V17.6541L54.8593 6.3904V17.2356H54.0523V4.448Z" fill="white"/>
<path d="M34.9133 4.45022C36.3927 4.48657 37.8777 5.08463 38.9654 6.08553V7.19436C37.9913 6.00516 36.2807 5.20022 34.7211 5.20017C31.5649 5.20017 28.9611 7.91432 28.9611 11.0092C28.9611 12.4837 29.5982 13.8696 30.6575 14.9107C31.7156 15.9131 33.226 16.6511 34.7211 16.6511C36.1797 16.651 38.0247 15.863 38.965 14.7238V15.8304C37.7766 16.8166 36.313 17.4032 34.7523 17.4032C31.2275 17.4032 28.1567 14.4725 28.1567 10.943C28.1568 7.35982 31.1774 4.44837 34.7704 4.44837L34.9133 4.45022Z" fill="white"/>
<path d="M26.9152 5.36888H19.7597V9.95442H26.7812V10.7099H19.7597V16.4842H26.9152V17.2364H18.9534V4.61338H26.9152V5.36888Z" fill="white"/>
<path d="M16.6967 4.61301V5.36888H10.5441V17.2356H9.73936V5.36888H3.58789V4.61301H16.6967Z" fill="white"/>
<path d="M42.0013 4.61338V9.97255H51.609V4.61338H52.413V17.2356H51.609V10.7251H42.0013V17.2356H41.1969V4.61338H42.0013Z" fill="white"/>
<path d="M68.8872 17.2356H68.0831V4.61301H68.8872V17.2356Z" fill="white"/>
<path d="M15.8011 65.3872C16.4553 65.3872 16.9914 65.9171 16.9914 66.4959C16.9914 67.2206 16.4553 67.7504 15.8011 67.7504C15.1476 67.7504 14.6108 67.2202 14.6107 66.4959C14.6108 65.9167 15.1476 65.3872 15.8011 65.3872Z" fill="white"/>
<path d="M20.2137 66.9341C20.49 66.9535 20.7463 67.039 20.7463 67.3874C20.7463 67.7919 20.3274 67.8301 20.005 67.8333H19.735V66.93H20.1383L20.2137 66.9341Z" fill="white"/>
<path d="M19.9255 65.3058C20.1893 65.3152 20.4503 65.3741 20.4503 65.7103C20.4503 66.0667 20.1486 66.117 19.8579 66.117H19.735V65.3039H19.813L19.9255 65.3058Z" fill="white"/>
<path d="M30.2915 65.3976C30.9262 65.4469 31.3633 65.8638 31.3633 66.5685C31.3633 67.3878 30.8045 67.7445 30.1511 67.7445H29.9048V65.3928H30.1618L30.2915 65.3976Z" fill="white"/>
<path d="M35.2973 67.1028H34.3866L34.8389 65.7661H34.8505L35.2973 67.1028Z" fill="white"/>
<path d="M38.8572 65.3976C39.492 65.4468 39.929 65.8637 39.9291 66.5685C39.929 67.3878 39.3702 67.7445 38.7168 67.7445H38.4705V65.3928H38.7276L38.8572 65.3976Z" fill="white"/>
<path d="M52.2523 65.3073C52.5687 65.3263 52.8773 65.4277 52.8774 65.8272C52.8774 66.2844 52.4742 66.3512 52.1175 66.3512H52.0109V65.3036H52.1175L52.2523 65.3073Z" fill="white"/>
<path d="M56.2891 66.9341C56.5653 66.9535 56.8213 67.039 56.8213 67.3874C56.8213 67.7919 56.402 67.8301 56.0804 67.8333H55.81V66.93H56.2133L56.2891 66.9341Z" fill="white"/>
<path d="M56.0005 65.3058C56.2639 65.3153 56.5253 65.3742 56.5253 65.7103C56.5252 66.0666 56.2239 66.117 55.9333 66.117H55.81V65.3039H55.8883L56.0005 65.3058Z" fill="white"/>
<path d="M60.7835 67.1028H59.8728L60.3248 65.7661H60.3367L60.7835 67.1028Z" fill="white"/>
<path d="M70.0708 67.1028H69.1605L69.6125 65.7661H69.6237L70.0708 67.1028Z" fill="white"/>
<path d="M28.7323 59.408C29.3701 59.4081 29.8917 59.9224 29.8918 60.4864C29.8917 61.1921 29.3701 61.7072 28.7323 61.7073C28.096 61.7072 27.5747 61.1925 27.5746 60.4864C27.5747 59.9224 28.096 59.4081 28.7323 59.408Z" fill="white"/>
<path d="M49.518 59.408C50.1543 59.4081 50.6752 59.9224 50.6753 60.4864C50.6752 61.1921 50.1543 61.7072 49.518 61.7073C48.8809 61.7072 48.36 61.1925 48.36 60.4864C48.36 59.9224 48.8809 59.4081 49.518 59.408Z" fill="white"/>
<path d="M69.7429 59.408C70.3773 59.4081 70.9023 59.9224 70.9024 60.4864C70.9023 61.1921 70.3777 61.7073 69.7429 61.7073C69.1077 61.7072 68.5827 61.1925 68.5826 60.4864C68.5827 59.9224 69.1074 59.4081 69.7429 59.408Z" fill="white"/>
<path d="M7.52393 59.33C7.83188 59.3487 8.13115 59.448 8.13118 59.8351C8.13113 60.2821 7.74008 60.3465 7.39208 60.3465H7.2892V59.3263H7.39208L7.52393 59.33Z" fill="white"/>
<path d="M12.2983 61.0785H11.4122L11.8527 59.7763H11.8631L12.2983 61.0785Z" fill="white"/>
<path d="M24.32 59.3699C24.6639 59.3784 24.9343 59.4405 24.9343 59.8902C24.9342 60.3881 24.5551 60.388 24.1688 60.388H23.9887V59.3688H24.1688L24.32 59.3699Z" fill="white"/>
<path d="M32.95 59.33C33.2578 59.3487 33.5579 59.4481 33.558 59.8351C33.5579 60.2821 33.1657 60.3465 32.8181 60.3465H32.7134V59.3263H32.8181L32.95 59.33Z" fill="white"/>
<path d="M15.3004 39.2831C17.2472 39.2832 18.8257 40.8568 18.8258 42.7999C18.8258 44.7415 17.2468 46.3129 15.3004 46.3129C13.3529 46.3128 11.7776 44.7415 11.7776 42.7999C11.7777 40.8568 13.3529 39.2832 15.3004 39.2831Z" fill="white"/>
<path fill-rule="evenodd" clip-rule="evenodd" d="M74.3669 20.4553V57.3072C74.3692 57.3553 74.381 57.4008 74.381 57.4497V68.9953C74.381 70.4615 73.2112 71.6498 71.7667 71.6498H2.61989C1.1761 71.6498 0.00519968 70.4615 0.00519968 68.9953V67.0066H0V20.4553H74.3669ZM15.8011 64.3288C14.5887 64.3288 13.4712 65.2201 13.4712 66.4907C13.4713 67.8496 14.4493 68.8084 15.8011 68.8085C17.1532 68.8085 18.1316 67.8496 18.1316 66.4907C18.1316 65.22 17.0135 64.3288 15.8011 64.3288ZM46.5453 66.8301C46.5453 67.3706 46.568 67.9057 46.9872 68.3126C47.3387 68.658 47.8925 68.78 48.3837 68.78C48.8756 68.7799 49.4288 68.6579 49.7806 68.3126C50.2003 67.9057 50.2222 67.3706 50.2222 66.8301V64.4683H49.1273V66.6795C49.1273 67.2261 49.088 67.8222 48.3837 67.8222C47.6797 67.8222 47.6409 67.2258 47.6409 66.6795V64.4683H46.5453V66.8301ZM3.20077 68.6693H5.59782V67.7445H4.29568V67.0199H5.53097V66.0948H4.29568V65.3931H5.59782V64.4683H3.20077V68.6693ZM7.93953 68.6693H9.02924L9.38096 66.2513H9.39247L10.3596 68.6693H10.7942L11.8062 66.2513H11.8174L12.1249 68.6693H13.2202L12.5832 64.4683H11.4943L10.5884 66.7128L9.73342 64.4683H8.65486L7.93953 68.6693ZM18.6397 68.6693H20.3274C21.099 68.6693 21.8527 68.3792 21.8528 67.4988C21.8528 66.9139 21.5955 66.507 20.9926 66.4293V66.4186C21.3337 66.2462 21.4565 65.9389 21.4565 65.56C21.4564 64.7577 20.9533 64.4683 20.2045 64.4683H18.6397V68.6693ZM22.4229 68.6693H23.5178V64.4676H22.4229V68.6693ZM24.2342 68.6693H26.6417V67.7445H25.3284V64.4683H24.2342V68.6693ZM26.9993 68.6693H28.0942V64.4676H26.9993V68.6693ZM28.8099 68.6693H30.3631C31.5303 68.6693 32.5031 67.75 32.5032 66.5685C32.5032 65.3875 31.5368 64.4683 30.3631 64.4683H28.8099V68.6693ZM32.6317 68.6693H33.7942L34.0846 67.9392H35.5929L35.867 68.6693H37.0351L35.448 64.4683H34.2521L32.6317 68.6693ZM37.3764 68.6693H38.9296C40.0971 68.6693 41.0688 67.75 41.0689 66.5685C41.0689 65.3876 40.1032 64.4684 38.9296 64.4683H37.3764V68.6693ZM41.5777 68.6693H43.9748V67.7445H42.6734V67.0199H43.9075V66.0948H42.6734V65.3931H43.9748V64.4683H41.5777V68.6693ZM50.916 68.6693H52.0109V67.0532H52.0216L53.0556 68.6693H54.4191L53.095 66.947C53.6926 66.8413 54.0168 66.3398 54.0168 65.7602C54.0168 64.8635 53.3848 64.4684 52.5524 64.4683H50.916V68.6693ZM54.7151 68.6693H56.4027C57.1736 68.6693 57.9281 68.3792 57.9281 67.4988C57.9281 66.9139 57.6718 66.5071 57.0683 66.4293V66.4186C57.409 66.2462 57.5318 65.9388 57.5318 65.56C57.5318 64.7578 57.0289 64.4684 56.2802 64.4683H54.7151V68.6693ZM58.1179 68.6693H59.2804L59.5712 67.9392H61.0798L61.3532 68.6693H62.5213L60.9343 64.4683H59.7391L58.1179 68.6693ZM62.8626 68.6693H63.9571V66.0948H63.9686L65.975 68.6693H67.0702V64.4683H65.975V67.0362H65.9638L63.9571 64.4683H62.8626V68.6693ZM67.4056 68.6693H68.5674L68.8582 67.9392H70.3672L70.6409 68.6693H71.8086L70.2216 64.4683H69.0261L67.4056 68.6693ZM28.7323 58.3785C27.5523 58.3786 26.4635 59.2467 26.4634 60.4809C26.4634 61.8061 27.4158 62.7378 28.7323 62.7379C30.0488 62.7379 31.0005 61.8061 31.0005 60.4809C31.0004 59.2467 29.9119 58.3786 28.7323 58.3785ZM49.518 58.3785C48.3384 58.3786 47.2499 59.2467 47.2498 60.4809C47.2498 61.8061 48.2027 62.7379 49.518 62.7379C50.836 62.7378 51.7854 61.8061 51.7854 60.4809C51.7853 59.2467 50.6987 58.3786 49.518 58.3785ZM69.7429 58.3785C68.5621 58.3786 67.473 59.2467 67.4729 60.4809C67.4729 61.8061 68.4257 62.7378 69.7429 62.7379C71.0586 62.7379 72.0114 61.8061 72.0114 60.4809C72.0113 59.2467 70.9237 58.3785 69.7429 58.3785ZM20.8121 58.4037C19.9918 58.4037 19.3975 58.9455 19.3974 59.7763C19.3974 60.5661 19.8389 60.7426 20.5083 60.9305C20.7359 60.9964 21.1552 61.1002 21.1553 61.3986C21.1552 61.683 20.8886 61.8097 20.6379 61.8098C20.2733 61.8097 19.9574 61.6208 19.6919 61.3886L19.2336 62.2439C19.6542 62.5371 20.1602 62.7112 20.6761 62.7113C21.0888 62.7113 21.5191 62.5969 21.8401 62.3249C22.1668 62.048 22.2639 61.6297 22.2639 61.224C22.2639 60.5638 21.8246 60.2757 21.2533 60.1071L20.9803 60.0257C20.7953 59.9666 20.5081 59.8741 20.5079 59.636C20.5079 59.4084 20.7691 59.2945 20.964 59.2944L21.0617 59.2992C21.2873 59.3219 21.5004 59.4214 21.6726 59.5646L22.0964 58.7412C21.7541 58.5455 21.2882 58.4201 20.8904 58.4052L20.8121 58.4037ZM45.6728 58.4033C45.0942 58.4033 44.5131 58.6535 44.11 59.0665C43.7176 59.4665 43.5069 60.0036 43.5068 60.5638C43.5068 61.1699 43.7147 61.7008 44.1657 62.1077C44.5878 62.4926 45.1337 62.7105 45.7052 62.7105C46.0368 62.7105 46.2922 62.6294 46.647 62.5207V61.2451C46.4221 61.5128 46.0762 61.681 45.7263 61.681C45.0627 61.6809 44.6166 61.2114 44.6166 60.566C44.6166 59.9349 45.0577 59.4348 45.7104 59.4347C46.0762 59.4347 46.4274 59.5915 46.647 59.8847V58.6094C46.3294 58.4791 46.0151 58.4033 45.6728 58.4033ZM14.4744 62.6017H15.5411V60.0953H15.5522L17.5051 62.6017H18.5718V58.5117H17.5051V61.0127H17.4936L15.5411 58.5117H14.4744V62.6017ZM2.85462 59.4117H3.73671V62.601H4.80301V59.4117H5.68325V58.5117H2.85462V59.4117ZM35.1832 59.4117H36.065V62.601H37.1301V59.4117H38.0115V58.5117H35.1832V59.4117ZM55.2781 62.601H57.6117V61.7013H56.3452V60.9967H57.5467V60.0953H56.3452V59.4117H57.6117V58.5117H55.2781V62.601ZM58.1071 59.4117H58.9885V62.601H60.0555V59.4117H60.9369V58.5117H58.1071V59.4117ZM61.4758 62.601H62.5402V58.5117H61.4758V62.601ZM6.22327 62.6006H7.2892V61.0304H7.29997L8.30574 62.6006H9.63166L8.34437 60.9253C8.92638 60.8219 9.24091 60.3348 9.24094 59.7711C9.24093 58.8971 8.6266 58.5114 7.81586 58.5114H6.22327V62.6006ZM9.70408 62.6006H10.8354L11.1188 61.8916H12.5877L12.8543 62.6006H13.9908L12.4465 58.5114H11.2833L9.70408 62.6006ZM22.9228 62.6006H23.9887V61.2451H24.5919C25.5226 61.245 26.0451 60.8228 26.0452 59.8584C26.0452 58.9192 25.4358 58.5114 24.5551 58.5114H22.9228V62.6006ZM31.6475 62.6006H32.713V61.0304H32.7249L33.7322 62.6006H35.0584L33.7689 60.9253C34.351 60.8219 34.667 60.3348 34.667 59.7711C34.667 58.8971 34.0526 58.5114 33.243 58.5114H31.6475V62.6006ZM38.5508 62.6006H40.8847V61.701H39.6186V60.9967H40.8201V60.0953H39.6186V59.4114H40.8847V58.5114H38.5508V62.6006ZM52.4339 62.6006H54.7778V61.701H53.5013V58.5114H52.4339V62.6006ZM64.6829 62.6006H65.5103L67.263 58.5114H66.1031L65.1085 60.9967L64.1194 58.5114H62.9595L64.6829 62.6006ZM42.6061 45.3866L42.5891 45.3955C42.5889 46.1944 41.9378 46.8406 41.1339 46.8406C40.3308 46.8406 39.68 46.1944 39.6798 45.3955L39.6906 45.458V31.1594H29.7005V47.4449H29.7095L29.7117 47.6396C29.8128 51.7114 33.0803 54.9798 37.0963 54.9798C39.1956 54.9798 41.2637 53.9048 42.6061 52.4697V54.9473H52.5943V31.155H42.6061V45.3866ZM3.12983 42.7436H3.13986L3.13503 42.798C3.13504 49.4989 8.58231 54.9279 15.3004 54.928C22.0178 54.928 27.4647 49.4989 27.4647 42.798C27.4646 36.2038 22.1869 30.8404 15.6146 30.6743L15.3004 30.6706C14.3051 30.6706 13.3434 30.8024 12.4168 31.0259V22.5769H3.12983V42.7436ZM64.4663 30.6617C58.9075 30.6617 54.4033 33.905 54.4031 37.9102C54.4031 40.4315 56.1922 42.6513 58.9004 43.9519L58.8975 43.9604C60.3324 44.5507 61.2266 45.6816 60.9573 46.6859C60.6461 47.824 58.9423 48.3598 57.1463 47.8768C55.3524 47.3941 54.4673 46.2402 54.4031 45.0969V53.0322C56.1519 54.0937 58.4094 54.7356 60.8767 54.7356C66.4326 54.7356 70.9391 51.4886 70.9392 47.4849C70.9391 45.2138 69.488 43.1875 67.2192 41.8569L67.2719 41.7925C67.0899 41.7433 66.9169 41.6765 66.7508 41.6068C66.6411 41.5511 66.5365 41.4919 66.4225 41.4358C65.2865 40.8058 64.6433 39.6689 64.9336 38.5922C65.2919 37.2629 66.9173 36.5491 68.5685 36.9943C69.7907 37.3208 70.6816 38.1905 70.9184 39.1603L70.9392 39.1658V32.3633C69.2434 31.3327 67.0734 30.7019 64.6966 30.6636L64.4663 30.6617Z" fill="white"/>
</svg>
