<svg width="266" height="368" viewBox="0 0 266 368" fill="none" xmlns="http://www.w3.org/2000/svg">
<path d="M111.845 305.876C111.845 306.561 111.285 307.118 110.602 307.118C109.911 307.118 109.356 306.561 109.356 305.876C109.356 305.185 109.911 304.626 110.602 304.626C111.285 304.627 111.845 305.186 111.845 305.876ZM114.123 309.399C116.068 307.453 116.068 304.3 114.123 302.352C112.177 300.407 109.022 300.407 107.078 302.352C105.128 304.3 105.128 307.453 107.078 309.399L110.602 312.927L114.123 309.399Z" fill="white"/>
<path d="M11.4089 312.373H26.3697V307.387H11.4089C8.65528 307.387 6.42608 305.154 6.42608 302.4V277.471H1.43945V302.4C1.43945 307.908 5.90072 312.373 11.4089 312.373ZM56.2876 297.412H41.3229V289.933C41.3229 285.804 44.6739 282.453 48.8038 282.453C52.9376 282.453 56.2876 285.804 56.2876 289.933V297.412ZM56.2876 312.373H61.2742V289.933C61.2742 283.052 55.6863 277.47 48.8028 277.47C41.9193 277.47 36.3391 283.052 36.3391 289.933V312.373H41.3219V302.399H56.2866V312.373H56.2876ZM102.652 288.296L106.143 284.773C96.5091 275.035 80.8798 275.037 71.2417 284.773L74.7329 288.296C77.9485 285.043 82.0054 283.156 86.2026 282.62V312.373H91.1853V282.62C95.3758 283.156 99.4336 285.043 102.652 288.296Z" fill="#DBDC84"/>
<path fill-rule="evenodd" clip-rule="evenodd" d="M151.015 287.444C151.015 290.424 149.701 293.094 147.626 294.918C149.701 296.75 151.015 299.417 151.016 302.399C151.016 307.908 146.554 312.373 141.046 312.373H126.092V277.47H141.045C146.553 277.47 151.015 281.934 151.015 287.444ZM141.045 307.386C143.799 307.386 146.031 305.153 146.031 302.399C146.031 299.644 143.799 297.412 141.045 297.411H131.075V307.386H141.045ZM146.031 287.444C146.031 290.194 143.799 292.427 141.045 292.427H131.075V282.453H141.045C143.799 282.453 146.031 284.686 146.031 287.444Z" fill="#EF8078"/>
<path d="M185.92 277.471V299.906C185.92 306.789 180.341 312.373 173.458 312.373C166.574 312.373 160.99 306.789 160.99 299.906V277.471H165.977V299.906C165.977 304.039 169.324 307.387 173.458 307.387C177.591 307.387 180.938 304.039 180.938 299.906V277.471H185.92Z" fill="#EF8078"/>
<path d="M208.487 277.486C214.672 277.486 218.711 279.589 220.822 283.91L216.398 286.071C215.566 284.371 213.915 282.411 208.487 282.411C202.42 282.411 200.822 285.742 200.822 287.503C200.822 290.218 203.334 291.146 208.676 292.482L209.227 292.617L209.237 292.619C214.129 293.842 220.822 295.514 220.822 302.361C220.822 308.933 214.487 312.373 208.234 312.373C202.041 312.373 198.007 310.274 195.895 305.956L200.318 303.793C201.149 305.494 202.801 307.446 208.233 307.446C214.298 307.446 215.896 304.124 215.896 302.361C215.896 299.654 213.379 298.731 208.036 297.397L207.485 297.257C202.594 296.037 195.895 294.361 195.895 287.504C195.895 280.927 202.226 277.486 208.487 277.486Z" fill="#EF8078"/>
<path fill-rule="evenodd" clip-rule="evenodd" d="M157.297 108.554C157.297 90.8215 142.922 76.4465 125.19 76.4465V108.554H157.297Z" fill="#EF8078"/>
<path fill-rule="evenodd" clip-rule="evenodd" d="M125.19 15.9637C74.0537 15.9637 32.5996 57.4179 32.5996 108.554H16.6357C16.6357 48.6013 65.237 0 125.19 0V15.9637Z" fill="#EF8078"/>
<path fill-rule="evenodd" clip-rule="evenodd" d="M0.0332031 108.554H16.6356C16.6356 168.507 65.2369 217.108 125.19 217.108V233.711C56.0677 233.711 0.0332031 177.676 0.0332031 108.554Z" fill="#DBDC84"/>
<path fill-rule="evenodd" clip-rule="evenodd" d="M125.189 170.974C90.7159 170.974 62.7695 143.028 62.7695 108.554H78.9932C78.9932 134.068 99.6759 154.751 125.189 154.751L125.189 170.974Z" fill="#EF8078"/>
<path fill-rule="evenodd" clip-rule="evenodd" d="M78.9932 108.554C78.9932 83.0407 99.676 62.3579 125.189 62.3579L125.189 76.4467C107.457 76.4467 93.0819 90.8217 93.0819 108.554H78.9932Z" fill="#DBDC84"/>
<path fill-rule="evenodd" clip-rule="evenodd" d="M203.799 108.554C203.799 65.1399 168.604 29.9456 125.19 29.9456V15.9641C176.326 15.9641 217.78 57.4181 217.78 108.554L203.799 108.554Z" fill="#DBDC84"/>
<path fill-rule="evenodd" clip-rule="evenodd" d="M250.346 108.554C250.346 177.676 194.312 233.711 125.19 233.711V249.036C202.776 249.036 265.671 186.14 265.671 108.554H250.346Z" fill="#EF8078"/>
<path fill-rule="evenodd" clip-rule="evenodd" d="M125.19 187.163V170.441C159.369 170.441 187.076 142.733 187.076 108.554H203.799C203.799 151.969 168.604 187.163 125.19 187.163Z" fill="#DBDC84"/>
<path d="M125.189 93.1753C133.683 93.1753 140.568 100.061 140.568 108.554C140.568 117.048 125.189 132.505 125.189 132.505C125.189 132.505 109.811 117.048 109.811 108.554C109.811 100.061 116.696 93.1753 125.189 93.1753ZM125.189 104.215C122.793 104.215 120.852 106.158 120.852 108.554C120.852 110.95 122.793 112.892 125.189 112.892C127.585 112.892 129.528 110.95 129.528 108.554C129.528 106.158 127.586 104.215 125.189 104.215Z" fill="white"/>
<path d="M2.7177 332.447V337.092H8.89205V338.546H2.7177V344.211H1.20716V330.993H9.60948V332.447H2.7177Z" fill="white"/>
<path d="M20.1056 339.811H11.9867C12.2511 341.756 13.6677 342.983 15.5931 342.983C16.821 342.983 17.8967 342.548 18.6715 341.736L19.4838 342.605C18.5394 343.662 17.1427 344.267 15.48 344.267C12.5537 344.267 10.5336 342.208 10.5336 339.244C10.5336 336.28 12.5729 334.222 15.4618 334.222C18.6715 334.202 20.2569 336.43 20.1056 339.811ZM18.7846 338.602C18.6898 336.696 17.4062 335.487 15.4609 335.487C13.5729 335.487 12.2128 336.714 11.9867 338.602H18.7846Z" fill="white"/>
<path d="M24.2201 331.408C24.2201 331.993 23.8044 332.428 23.2574 332.428C22.7104 332.428 22.2948 331.993 22.2948 331.408C22.2948 330.823 22.7104 330.388 23.2574 330.388C23.8053 330.388 24.2201 330.823 24.2201 331.408ZM22.54 344.21V334.259H23.994V344.21H22.54Z" fill="white"/>
<path d="M28.9593 336.468C29.6202 335.014 30.8472 334.221 32.5282 334.203V335.694C30.4324 335.657 29.1288 336.96 28.9593 338.923V344.21H27.487V334.259H28.9593V336.468Z" fill="white"/>
<path d="M40.1177 342.68C39.3246 343.756 38.0593 344.285 36.4731 344.285C34.4147 344.285 33.0929 342.963 33.0929 341.245C33.0929 339.508 34.4712 338.413 36.8131 338.394H40.0794V337.809C40.0794 336.354 39.1733 335.486 37.4167 335.486C36.3218 335.486 35.3017 335.902 34.2634 336.619L33.6407 335.543C34.9252 334.693 36.0009 334.203 37.7002 334.203C40.1551 334.203 41.5143 335.505 41.5335 337.639L41.5517 344.21H40.1168V342.68H40.1177ZM40.0986 340.773V339.584H37.0018C35.34 339.584 34.4721 340.094 34.4721 341.188C34.4721 342.284 35.36 343.002 36.7566 343.002C38.4367 343.002 39.7212 342.151 40.0986 340.773Z" fill="white"/>
<path d="M57.3342 342.775V344.21H50.0268V330.993H51.5373V342.775H57.3342Z" fill="white"/>
<path d="M65.6599 342.68C64.8668 343.756 63.6015 344.285 62.0153 344.285C59.9569 344.285 58.6351 342.963 58.6351 341.245C58.6351 339.508 60.0134 338.413 62.3553 338.394H65.6217V337.809C65.6217 336.354 64.7155 335.486 62.9589 335.486C61.864 335.486 60.8439 335.902 59.8056 336.619L59.183 335.543C60.4674 334.693 61.5431 334.203 63.2424 334.203C65.6973 334.203 67.0565 335.505 67.0757 337.639L67.0939 344.21H65.659V342.68H65.6599ZM65.6408 340.773V339.584H62.544C60.8822 339.584 60.0143 340.094 60.0143 341.188C60.0143 342.284 60.9022 343.002 62.2988 343.002C63.9789 343.002 65.2634 342.151 65.6408 340.773Z" fill="white"/>
<path d="M75.4191 343.53C74.7207 344.002 73.9651 344.267 73.172 344.285C71.7179 344.285 70.6413 343.416 70.6413 341.453V335.769H69.2065V334.579H70.6413V331.955H72.0954V334.579L75.2486 334.561V335.77H72.0954V341.188C72.0954 342.398 72.5667 342.85 73.4172 342.85C73.9268 342.85 74.4555 342.681 75.0034 342.341L75.4191 343.53Z" fill="white"/>
<path d="M79.2323 331.408C79.2323 331.993 78.8167 332.428 78.2697 332.428C77.7227 332.428 77.307 331.993 77.307 331.408C77.307 330.823 77.7227 330.388 78.2697 330.388C78.8175 330.388 79.2323 330.823 79.2323 331.408ZM77.5522 344.21V334.259H79.0062V344.21H77.5522Z" fill="white"/>
<path d="M91.5995 338.073V344.21H90.1272V338.47C90.1272 336.713 89.0697 335.675 87.3139 335.675C85.3503 335.693 84.1416 336.978 83.972 338.867V344.21H82.4997V334.259H83.972V336.451C84.6703 334.94 86.0113 334.222 87.8244 334.204C90.202 334.202 91.5995 335.675 91.5995 338.073Z" fill="white"/>
<path d="M103.872 339.225C103.872 342.209 101.775 344.267 98.8295 344.267C95.884 344.267 93.7883 342.209 93.7883 339.225C93.7883 336.261 95.884 334.221 98.8295 334.221C101.775 334.221 103.872 336.261 103.872 339.225ZM95.2596 339.243C95.2596 341.435 96.7511 342.945 98.8286 342.945C100.906 342.945 102.398 341.435 102.398 339.243C102.398 337.072 100.906 335.562 98.8286 335.562C96.7519 335.562 95.2596 337.072 95.2596 339.243Z" fill="white"/>
<path d="M112.536 342.68C111.742 343.756 110.477 344.285 108.892 344.285C106.833 344.285 105.512 342.963 105.512 341.245C105.512 339.508 106.89 338.413 109.231 338.394H112.497V337.809C112.497 336.354 111.591 335.486 109.835 335.486C108.74 335.486 107.72 335.902 106.681 336.619L106.059 335.543C107.342 334.693 108.419 334.203 110.118 334.203C112.572 334.203 113.932 335.505 113.95 337.639L113.97 344.21H112.535L112.536 342.68ZM112.516 340.773V339.584H109.419C107.758 339.584 106.889 340.094 106.889 341.188C106.889 342.284 107.777 343.002 109.174 343.002C110.855 343.002 112.139 342.151 112.516 340.773Z" fill="white"/>
<path d="M133.606 338.073V344.21H132.133V338.47C132.133 336.695 131.095 335.657 129.377 335.657C127.318 335.713 126.13 337.186 126.13 339.32V344.21H124.637V338.47C124.637 336.695 123.617 335.657 121.881 335.657C119.841 335.713 118.613 337.186 118.613 339.32V344.21H117.159V334.259H118.613V336.506C119.275 334.958 120.615 334.222 122.408 334.204C124.278 334.204 125.563 335.166 125.977 336.809C126.6 335.052 127.998 334.222 129.905 334.204C132.227 334.202 133.606 335.675 133.606 338.073Z" fill="white"/>
<path d="M145.347 339.811H137.228C137.492 341.756 138.909 342.983 140.834 342.983C142.061 342.983 143.137 342.548 143.911 341.736L144.724 342.605C143.779 343.662 142.383 344.267 140.72 344.267C137.794 344.267 135.774 342.208 135.774 339.244C135.774 336.28 137.813 334.222 140.702 334.222C143.912 334.202 145.499 336.43 145.347 339.811ZM144.025 338.602C143.931 336.696 142.647 335.487 140.703 335.487C138.815 335.487 137.455 336.714 137.228 338.602H144.025Z" fill="white"/>
<path d="M149.254 336.468C149.915 335.014 151.142 334.221 152.823 334.203V335.694C150.727 335.657 149.424 336.96 149.254 338.923V344.21H147.781V334.259H149.254V336.468Z" fill="white"/>
<path d="M156.389 331.408C156.389 331.993 155.973 332.428 155.426 332.428C154.879 332.428 154.464 331.993 154.464 331.408C154.464 330.823 154.879 330.388 155.426 330.388C155.973 330.388 156.389 330.823 156.389 331.408ZM154.709 344.21V334.259H156.163V344.21H154.709Z" fill="white"/>
<path d="M167.416 335.693L166.604 336.732C165.848 336.014 164.847 335.58 163.639 335.58C161.581 335.58 160.107 337.072 160.107 339.243C160.107 341.415 161.58 342.925 163.639 342.925C164.942 342.925 166.017 342.472 166.717 341.641L167.566 342.547C166.678 343.624 165.301 344.266 163.582 344.266C160.694 344.266 158.654 342.208 158.654 339.243C158.654 336.28 160.712 334.221 163.582 334.221C165.188 334.202 166.509 334.75 167.416 335.693Z" fill="white"/>
<path d="M175.778 342.68C174.985 343.756 173.72 344.285 172.135 344.285C170.076 344.285 168.754 342.963 168.754 341.245C168.754 339.508 170.133 338.413 172.474 338.394H175.74V337.809C175.74 336.354 174.834 335.486 173.077 335.486C171.982 335.486 170.962 335.902 169.924 336.619L169.301 335.543C170.585 334.693 171.662 334.203 173.361 334.203C175.815 334.203 177.175 335.505 177.193 337.639L177.212 344.21H175.777L175.778 342.68ZM175.76 340.773V339.584H172.662C171.002 339.584 170.133 340.094 170.133 341.188C170.133 342.284 171.021 343.002 172.417 343.002C174.098 343.002 175.382 342.151 175.76 340.773Z" fill="white"/>
<path d="M189.504 338.073V344.21H188.031V338.47C188.031 336.713 186.974 335.675 185.218 335.675C183.254 335.693 182.047 336.978 181.876 338.867V344.21H180.403V334.259H181.876V336.451C182.574 334.94 183.915 334.222 185.728 334.204C188.107 334.202 189.504 335.675 189.504 338.073Z" fill="white"/>
<path d="M198.867 342.68C198.074 343.756 196.808 344.285 195.223 344.285C193.165 344.285 191.843 342.963 191.843 341.245C191.843 339.508 193.221 338.413 195.562 338.394H198.828V337.809C198.828 336.354 197.922 335.486 196.166 335.486C195.071 335.486 194.051 335.902 193.012 336.619L192.39 335.543C193.673 334.693 194.75 334.203 196.449 334.203C198.903 334.203 200.263 335.505 200.282 337.639L200.301 344.21H198.866V342.68H198.867ZM198.848 340.773V339.584H195.751C194.09 339.584 193.221 340.094 193.221 341.188C193.221 342.284 194.109 343.002 195.506 343.002C197.186 343.002 198.47 342.151 198.848 340.773Z" fill="white"/>
<path d="M10.139 364.338H8.6667V362.205C7.93013 363.601 6.57088 364.414 4.79598 364.414C1.96361 364.414 0 362.318 0 359.353C0 356.369 1.96362 354.312 4.77686 354.312C6.55176 354.312 7.93013 355.124 8.6667 356.54V350.327H10.139V364.338ZM8.66582 359.391C8.66582 357.219 7.17442 355.651 5.07862 355.651C2.96369 355.651 1.47228 357.219 1.47228 359.391C1.47228 361.543 2.96369 363.092 5.07862 363.092C7.17442 363.092 8.66582 361.543 8.66582 359.391Z" fill="white"/>
<path d="M22.8058 359.352C22.8058 362.336 20.7099 364.394 17.7645 364.394C14.8191 364.394 12.7233 362.336 12.7233 359.352C12.7233 356.388 14.8191 354.348 17.7645 354.348C20.7099 354.348 22.8058 356.388 22.8058 359.352ZM14.1956 359.371C14.1956 361.563 15.687 363.073 17.7645 363.073C19.8412 363.073 21.3335 361.563 21.3335 359.371C21.3335 357.2 19.8421 355.69 17.7645 355.69C15.687 355.689 14.1956 357.2 14.1956 359.371Z" fill="white"/>
<path d="M34.6041 352.574V364.337H33.0935V352.574H28.788V351.12H38.9278V352.574H34.6041Z" fill="white"/>
<path d="M41.3429 356.596C42.0039 355.142 43.2309 354.349 44.9119 354.331V355.822C42.8161 355.785 41.5125 357.087 41.3429 359.051V364.338H39.8707V354.387H41.3429V356.596Z" fill="white"/>
<path d="M52.5018 362.809C51.7087 363.884 50.4434 364.414 48.8572 364.414C46.7988 364.414 45.477 363.092 45.477 361.374C45.477 359.637 46.8553 358.541 49.1972 358.523H52.4635V357.938C52.4635 356.484 51.5574 355.615 49.8008 355.615C48.7059 355.615 47.6858 356.031 46.6475 356.748L46.0248 355.672C47.3093 354.822 48.385 354.332 50.0842 354.332C52.5392 354.332 53.8984 355.634 53.9175 357.767L53.9358 364.339H52.5009V362.809H52.5018ZM52.4827 360.902V359.713H49.3859C47.7241 359.713 46.8562 360.222 46.8562 361.318C46.8562 362.413 47.7441 363.13 49.1407 363.13C50.8208 363.13 52.1052 362.28 52.4827 360.902Z" fill="white"/>
<path d="M66.2262 358.201V364.338H64.7539V358.598C64.7539 356.841 63.6965 355.803 61.9407 355.803C59.9771 355.821 58.7683 357.106 58.5987 358.994V364.338H57.1264V354.387H58.5987V356.579C59.297 355.068 60.638 354.35 62.4512 354.332C64.8296 354.331 66.2262 355.803 66.2262 358.201Z" fill="white"/>
<path d="M75.2315 355.237L74.6653 356.408C73.8914 355.917 72.8904 355.595 71.9652 355.595C70.8512 355.595 70.0015 355.992 70.0015 356.918C70.0015 359.127 75.5532 357.993 75.5532 361.563C75.5532 363.527 73.8157 364.396 71.9086 364.396C70.4929 364.396 69.0389 363.905 68.0944 362.998L68.6606 361.885C69.5102 362.677 70.7946 363.149 71.9652 363.149C73.1357 363.149 74.0801 362.716 74.0992 361.734C74.1557 359.335 68.5858 360.562 68.604 357.032C68.604 355.125 70.2468 354.332 72.0599 354.332C73.2487 354.331 74.401 354.671 75.2315 355.237Z" fill="white"/>
<path d="M88.0506 359.391C88.0506 362.336 86.1244 364.395 83.3111 364.395C81.5354 364.395 80.177 363.583 79.4396 362.204V368H77.9673V354.386H79.4396V356.539C80.1762 355.143 81.5354 354.331 83.2729 354.331C86.087 354.331 88.0506 356.408 88.0506 359.391ZM86.5592 359.353C86.5592 357.22 85.0869 355.652 83.0094 355.652C80.9136 355.652 79.4405 357.2 79.4405 359.353C79.4405 361.524 80.9136 363.054 83.0094 363.054C85.086 363.054 86.5592 361.506 86.5592 359.353Z" fill="white"/>
<path d="M99.6224 359.352C99.6224 362.336 97.5266 364.394 94.5812 364.394C91.6357 364.394 89.5399 362.336 89.5399 359.352C89.5399 356.388 91.6357 354.348 94.5812 354.348C97.5266 354.348 99.6224 356.388 99.6224 359.352ZM91.0122 359.371C91.0122 361.563 92.5036 363.073 94.5812 363.073C96.6578 363.073 98.1501 361.563 98.1501 359.371C98.1501 357.2 96.6587 355.69 94.5812 355.69C92.5036 355.689 91.0122 357.2 91.0122 359.371Z" fill="white"/>
<path d="M103.586 356.596C104.247 355.142 105.474 354.349 107.155 354.331V355.822C105.059 355.785 103.757 357.087 103.586 359.051V364.338H102.114V354.387H103.586V356.596Z" fill="white"/>
<path d="M114.177 363.658C113.478 364.13 112.723 364.395 111.93 364.413C110.476 364.413 109.4 363.544 109.4 361.581V355.897H107.966V354.707H109.4V352.083H110.854V354.707L114.008 354.689V355.898H110.854V361.317C110.854 362.525 111.327 362.978 112.176 362.978C112.687 362.978 113.215 362.809 113.762 362.469L114.177 363.658Z" fill="white"/>
<path d="M124.732 359.938H116.612C116.877 361.883 118.293 363.11 120.218 363.11C121.446 363.11 122.521 362.675 123.296 361.863L124.108 362.732C123.164 363.789 121.767 364.394 120.105 364.394C117.178 364.394 115.158 362.335 115.158 359.371C115.158 356.407 117.197 354.349 120.086 354.349C123.297 354.33 124.883 356.557 124.732 359.938ZM123.41 358.729C123.316 356.823 122.032 355.614 120.087 355.614C118.199 355.614 116.84 356.841 116.613 358.729H123.41Z" fill="white"/>
</svg>
